<svg width="258" height="93" viewBox="0 0 258 93" fill="none" xmlns="http://www.w3.org/2000/svg">
<g clip-path="url(#clip0)">
<path d="M57.2204 29.6341L46.6873 41.7639L50.7656 46.4603L61.2987 34.3306L57.2204 29.6341Z" fill="#66C05D"/>
<path d="M35.9094 54.2011L25.3762 66.3308L29.4545 71.0273L39.9877 58.8975L35.9094 54.2011Z" fill="#66C05D"/>
<path d="M50.5173 21.9563L39.9842 34.086L44.0625 38.7825L54.5956 26.6527L50.5173 21.9563Z" fill="#66C05D"/>
<path d="M29.2355 46.4901L18.7023 58.6198L22.7806 63.3163L33.3138 51.1865L29.2355 46.4901Z" fill="#66C05D"/>
<path d="M22.7576 29.6337L18.6793 34.3302L29.2124 46.46L33.2907 41.7635L22.7576 29.6337Z" fill="#66C05D"/>
<path d="M29.454 21.9481L25.3757 26.6446L35.9089 38.7743L39.9872 34.0779L29.454 21.9481Z" fill="#66C05D"/>
<path d="M50.7592 46.456L46.6809 51.1525L57.2141 63.2822L61.2924 58.5857L50.7592 46.456Z" fill="#66C05D"/>
<path d="M44.092 54.1752L40.0137 58.8717L50.5468 71.0014L54.6251 66.305L44.092 54.1752Z" fill="#66C05D"/>
<path d="M54.6058 75.7213L50.5394 71.0386L40 83.1755L29.4606 71.0386L25.3942 75.7213L40 92.5411L54.6058 75.7213Z" fill="#EFEFEF"/>
<path d="M18.6722 34.341L14.6058 29.6582L0 46.4779L14.6058 63.2977L18.6722 58.6149L8.13278 46.4779L18.6722 34.341Z" fill="#EFEFEF"/>
<path d="M65.3942 29.6582L61.3278 34.341L71.8672 46.4779L61.3278 58.6149L65.3942 63.2977L80 46.4779L65.3942 29.6582Z" fill="#EFEFEF"/>
<path d="M50.5394 21.9173L54.6058 17.2345L40 0.414795L25.3942 17.2345L29.4606 21.9173L40 9.78033L50.5394 21.9173Z" fill="#EFEFEF"/>
</g>
<path d="M102.285 57.5979V32.0042H111.25C114.355 32.0042 116.711 32.6018 118.316 33.7971C119.922 34.9807 120.725 36.7209 120.725 39.0178C120.725 40.2717 120.402 41.3792 119.758 42.3401C119.113 43.2893 118.217 43.9866 117.068 44.4319C118.381 44.76 119.412 45.4221 120.162 46.4182C120.924 47.4143 121.305 48.6331 121.305 50.0745C121.305 52.5354 120.52 54.3987 118.949 55.6643C117.379 56.9299 115.141 57.5745 112.234 57.5979H102.285ZM107.559 46.4534V53.3616H112.076C113.318 53.3616 114.285 53.0686 114.977 52.4827C115.68 51.885 116.031 51.0647 116.031 50.0217C116.031 47.678 114.818 46.4885 112.393 46.4534H107.559ZM107.559 42.7268H111.461C114.121 42.6799 115.451 41.6194 115.451 39.5452C115.451 38.385 115.111 37.553 114.432 37.0491C113.764 36.5334 112.703 36.2756 111.25 36.2756H107.559V42.7268ZM144.276 46.5061H134.151V53.3616H146.034V57.5979H128.877V32.0042H145.998V36.2756H134.151V42.3752H144.276V46.5061ZM167.177 52.3245H157.93L156.173 57.5979H150.565L160.093 32.0042H164.979L174.559 57.5979H168.952L167.177 52.3245ZM159.354 48.053H165.753L162.536 38.4729L159.354 48.053ZM199.605 32.0042V48.8616C199.605 51.6624 198.726 53.8772 196.968 55.5061C195.222 57.135 192.831 57.9495 189.796 57.9495C186.808 57.9495 184.435 57.1584 182.677 55.5764C180.919 53.9944 180.023 51.8206 179.988 49.0549V32.0042H185.261V48.8967C185.261 50.5725 185.659 51.7971 186.456 52.5706C187.265 53.3323 188.378 53.7131 189.796 53.7131C192.761 53.7131 194.267 52.1545 194.314 49.0374V32.0042H199.605ZM226.795 36.2756H218.955V57.5979H213.681V36.2756H205.947V32.0042H226.795V36.2756ZM242.523 43.5354L247.85 32.0042H253.615L245.213 48.3167V57.5979H239.852V48.3167L231.449 32.0042H237.232L242.523 43.5354Z" fill="#66C05D"/>
<defs>
<clipPath id="clip0">
<rect width="80" height="92.1263" fill="white" transform="translate(0 0.414795)"/>
</clipPath>
</defs>
</svg>
